#tb 0: 1/25
#media_type 0: video
#codec_id 0: rawvideo
#dimensions 0: 352x288
#sar 0: 0/1
0,          0,          0,        1,   152064, 0x24846654
0,          1,          1,        1,   152064, 0xd33945be
0,          2,          2,        1,   152064, 0x961cbbfb
0,          3,          3,        1,   152064, 0x91eb854d
0,          4,          4,        1,   152064, 0x998351b4
0,          5,          5,        1,   152064, 0xe7515c67
0,          6,          6,        1,   152064, 0xd32058ae
0,          7,          7,        1,   152064, 0x99cb5695
0,          8,          8,        1,   152064, 0x281de175
0,          9,          9,        1,   152064, 0xf4146f55
0,         10,         10,        1,   152064, 0x63abbb61
0,         11,         11,        1,   152064, 0xf44550c5
0,         12,         12,        1,   152064, 0x5797a5c2
0,         13,         13,        1,   152064, 0x13b15c60
0,         14,         14,        1,   152064, 0x6521e682
0,         15,         15,        1,   152064, 0x780c32a4
0,         16,         16,        1,   152064, 0x6289f37c
0,         17,         17,        1,   152064, 0x96d64d81
0,         18,         18,        1,   152064, 0x12ac80ef
0,         19,         19,        1,   152064, 0x470956e4
0,         20,         20,        1,   152064, 0x3954f944
0,         21,         21,        1,   152064, 0x2147f0db
0,         22,         22,        1,   152064, 0xca7c9a39
0,         23,         23,        1,   152064, 0x727e7772
0,         24,         24,        1,   152064, 0xb3b0f8c8
0,         25,         25,        1,   152064, 0x6d6eb7ba
0,         26,         26,        1,   152064, 0x1eaf5734
0,         27,         27,        1,   152064, 0xd7938056
0,         28,         28,        1,   152064, 0xcae1ead3
0,         29,         29,        1,   152064, 0x6411b82c
0,         30,         30,        1,   152064, 0x6f001718
0,         31,         31,        1,   152064, 0x3724d9b8
0,         32,         32,        1,   152064, 0x04501fec
0,         33,         33,        1,   152064, 0x3f4d13bb
0,         34,         34,        1,   152064, 0x38f2510a
0,         35,         35,        1,   152064, 0x5bb71106
0,         36,         36,        1,   152064, 0xe888b09d
0,         37,         37,        1,   152064, 0xca6f5f6a
0,         38,         38,        1,   152064, 0x01c7d329
0,         39,         39,        1,   152064, 0x4e670932
0,         40,         40,        1,   152064, 0x651b4984
0,         41,         41,        1,   152064, 0x76371fa3
0,         42,         42,        1,   152064, 0x60574af0
0,         43,         43,        1,   152064, 0xcc1f2080
0,         44,         44,        1,   152064, 0xdbf29eb6
0,         45,         45,        1,   152064, 0x8ff870be
0,         46,         46,        1,   152064, 0x5d39ea56
0,         47,         47,        1,   152064, 0xabb7c0a5
0,         48,         48,        1,   152064, 0xecb15771
0,         49,         49,        1,   152064, 0x571ab1ae
0,         50,         50,        1,   152064, 0xc0f22bad
0,         51,         51,        1,   152064, 0x22e7593f
0,         52,         52,        1,   152064, 0x3c3dee75
0,         53,         53,        1,   152064, 0x1c80b995
0,         54,         54,        1,   152064, 0x5ba442fa
0,         55,         55,        1,   152064, 0xe2291c05
0,         56,         56,        1,   152064, 0xa780b11e
0,         57,         57,        1,   152064, 0x15bf83fa
0,         58,         58,        1,   152064, 0x60fb7c11
0,         59,         59,        1,   152064, 0x3fb8cee5
